ISO-10303-21;
HEADER;
/* Generated by software containing ST-Developer
 * from STEP Tools, Inc. (www.steptools.com) 
 */

FILE_DESCRIPTION(
/* description */ (''),
/* implementation_level */ '2;1');

FILE_NAME(
/* name */ 'stess ana.stp',
/* time_stamp */ '2026-08-21T11:36:57+05:30',
/* author */ ('indrajit'),
/* organization */ (''),
/* preprocessor_version */ 'ST-DEVELOPER v20.1',
/* originating_system */ 'Autodesk Inventor 2027',
/* authorisation */ '');

FILE_SCHEMA (('AUTOMOTIVE_DESIGN { 1 0 10303 214 3 1 1 }'));
ENDSEC;

DATA;
#10=MECHANICAL_DESIGN_GEOMETRIC_PRESENTATION_REPRESENTATION('',(#13),#336);
#11=SHAPE_REPRESENTATION_RELATIONSHIP('SRR','None',#343,#12);
#12=ADVANCED_BREP_SHAPE_REPRESENTATION('',(#14),#335);
#13=STYLED_ITEM('',(#352),#14);
#14=MANIFOLD_SOLID_BREP('Solid1',#195);
#15=FACE_BOUND('',#40,.T.);
#16=FACE_BOUND('',#42,.T.);
#17=FACE_BOUND('',#46,.T.);
#18=FACE_BOUND('',#50,.T.);
#19=PLANE('',#221);
#20=PLANE('',#222);
#21=PLANE('',#223);
#22=PLANE('',#227);
#23=PLANE('',#228);
#24=PLANE('',#229);
#25=PLANE('',#230);
#26=PLANE('',#231);
#27=FACE_OUTER_BOUND('',#37,.T.);
#28=FACE_OUTER_BOUND('',#38,.T.);
#29=FACE_OUTER_BOUND('',#39,.T.);
#30=FACE_OUTER_BOUND('',#41,.T.);
#31=FACE_OUTER_BOUND('',#43,.T.);
#32=FACE_OUTER_BOUND('',#44,.T.);
#33=FACE_OUTER_BOUND('',#45,.T.);
#34=FACE_OUTER_BOUND('',#47,.T.);
#35=FACE_OUTER_BOUND('',#48,.T.);
#36=FACE_OUTER_BOUND('',#49,.T.);
#37=EDGE_LOOP('',(#135,#136,#137,#138));
#38=EDGE_LOOP('',(#139,#140,#141,#142));
#39=EDGE_LOOP('',(#143,#144,#145,#146));
#40=EDGE_LOOP('',(#147));
#41=EDGE_LOOP('',(#148,#149,#150,#151));
#42=EDGE_LOOP('',(#152));
#43=EDGE_LOOP('',(#153,#154,#155,#156));
#44=EDGE_LOOP('',(#157,#158,#159,#160,#161,#162));
#45=EDGE_LOOP('',(#163,#164,#165,#166));
#46=EDGE_LOOP('',(#167));
#47=EDGE_LOOP('',(#168,#169,#170,#171,#172,#173));
#48=EDGE_LOOP('',(#174,#175,#176,#177));
#49=EDGE_LOOP('',(#178,#179,#180,#181));
#50=EDGE_LOOP('',(#182));
#51=LINE('',#287,#71);
#52=LINE('',#292,#72);
#53=LINE('',#294,#73);
#54=LINE('',#296,#74);
#55=LINE('',#297,#75);
#56=LINE('',#300,#76);
#57=LINE('',#302,#77);
#58=LINE('',#303,#78);
#59=LINE('',#306,#79);
#60=LINE('',#308,#80);
#61=LINE('',#309,#81);
#62=LINE('',#314,#82);
#63=LINE('',#319,#83);
#64=LINE('',#320,#84);
#65=LINE('',#321,#85);
#66=LINE('',#324,#86);
#67=LINE('',#325,#87);
#68=LINE('',#328,#88);
#69=LINE('',#329,#89);
#70=LINE('',#331,#90);
#71=VECTOR('',#238,3.75);
#72=VECTOR('',#243,10.);
#73=VECTOR('',#244,10.);
#74=VECTOR('',#245,10.);
#75=VECTOR('',#246,10.);
#76=VECTOR('',#249,10.);
#77=VECTOR('',#250,10.);
#78=VECTOR('',#251,10.);
#79=VECTOR('',#254,10.);
#80=VECTOR('',#255,10.);
#81=VECTOR('',#256,10.);
#82=VECTOR('',#261,3.75);
#83=VECTOR('',#266,10.);
#84=VECTOR('',#267,10.);
#85=VECTOR('',#268,10.);
#86=VECTOR('',#271,10.);
#87=VECTOR('',#272,10.);
#88=VECTOR('',#275,10.);
#89=VECTOR('',#276,10.);
#90=VECTOR('',#279,10.);
#91=CIRCLE('',#219,3.75);
#92=CIRCLE('',#220,3.75);
#93=CIRCLE('',#224,3.75);
#94=CIRCLE('',#226,3.75);
#95=VERTEX_POINT('',#284);
#96=VERTEX_POINT('',#286);
#97=VERTEX_POINT('',#290);
#98=VERTEX_POINT('',#291);
#99=VERTEX_POINT('',#293);
#100=VERTEX_POINT('',#295);
#101=VERTEX_POINT('',#299);
#102=VERTEX_POINT('',#301);
#103=VERTEX_POINT('',#305);
#104=VERTEX_POINT('',#307);
#105=VERTEX_POINT('',#310);
#106=VERTEX_POINT('',#313);
#107=VERTEX_POINT('',#317);
#108=VERTEX_POINT('',#318);
#109=VERTEX_POINT('',#323);
#110=VERTEX_POINT('',#327);
#111=EDGE_CURVE('',#95,#95,#91,.T.);
#112=EDGE_CURVE('',#95,#96,#51,.T.);
#113=EDGE_CURVE('',#96,#96,#92,.T.);
#114=EDGE_CURVE('',#97,#98,#52,.T.);
#115=EDGE_CURVE('',#97,#99,#53,.T.);
#116=EDGE_CURVE('',#100,#99,#54,.T.);
#117=EDGE_CURVE('',#98,#100,#55,.T.);
#118=EDGE_CURVE('',#99,#101,#56,.T.);
#119=EDGE_CURVE('',#102,#101,#57,.T.);
#120=EDGE_CURVE('',#102,#100,#58,.T.);
#121=EDGE_CURVE('',#101,#103,#59,.T.);
#122=EDGE_CURVE('',#103,#104,#60,.T.);
#123=EDGE_CURVE('',#104,#102,#61,.T.);
#124=EDGE_CURVE('',#105,#105,#93,.T.);
#125=EDGE_CURVE('',#105,#106,#62,.T.);
#126=EDGE_CURVE('',#106,#106,#94,.T.);
#127=EDGE_CURVE('',#107,#108,#63,.T.);
#128=EDGE_CURVE('',#108,#103,#64,.T.);
#129=EDGE_CURVE('',#107,#97,#65,.T.);
#130=EDGE_CURVE('',#109,#107,#66,.T.);
#131=EDGE_CURVE('',#109,#98,#67,.T.);
#132=EDGE_CURVE('',#110,#109,#68,.T.);
#133=EDGE_CURVE('',#110,#104,#69,.T.);
#134=EDGE_CURVE('',#108,#110,#70,.T.);
#135=ORIENTED_EDGE('',*,*,#111,.F.);
#136=ORIENTED_EDGE('',*,*,#112,.T.);
#137=ORIENTED_EDGE('',*,*,#113,.F.);
#138=ORIENTED_EDGE('',*,*,#112,.F.);
#139=ORIENTED_EDGE('',*,*,#114,.F.);
#140=ORIENTED_EDGE('',*,*,#115,.T.);
#141=ORIENTED_EDGE('',*,*,#116,.F.);
#142=ORIENTED_EDGE('',*,*,#117,.F.);
#143=ORIENTED_EDGE('',*,*,#116,.T.);
#144=ORIENTED_EDGE('',*,*,#118,.T.);
#145=ORIENTED_EDGE('',*,*,#119,.F.);
#146=ORIENTED_EDGE('',*,*,#120,.T.);
#147=ORIENTED_EDGE('',*,*,#113,.T.);
#148=ORIENTED_EDGE('',*,*,#119,.T.);
#149=ORIENTED_EDGE('',*,*,#121,.T.);
#150=ORIENTED_EDGE('',*,*,#122,.T.);
#151=ORIENTED_EDGE('',*,*,#123,.T.);
#152=ORIENTED_EDGE('',*,*,#124,.T.);
#153=ORIENTED_EDGE('',*,*,#124,.F.);
#154=ORIENTED_EDGE('',*,*,#125,.T.);
#155=ORIENTED_EDGE('',*,*,#126,.T.);
#156=ORIENTED_EDGE('',*,*,#125,.F.);
#157=ORIENTED_EDGE('',*,*,#127,.T.);
#158=ORIENTED_EDGE('',*,*,#128,.T.);
#159=ORIENTED_EDGE('',*,*,#121,.F.);
#160=ORIENTED_EDGE('',*,*,#118,.F.);
#161=ORIENTED_EDGE('',*,*,#115,.F.);
#162=ORIENTED_EDGE('',*,*,#129,.F.);
#163=ORIENTED_EDGE('',*,*,#130,.T.);
#164=ORIENTED_EDGE('',*,*,#129,.T.);
#165=ORIENTED_EDGE('',*,*,#114,.T.);
#166=ORIENTED_EDGE('',*,*,#131,.F.);
#167=ORIENTED_EDGE('',*,*,#111,.T.);
#168=ORIENTED_EDGE('',*,*,#132,.T.);
#169=ORIENTED_EDGE('',*,*,#131,.T.);
#170=ORIENTED_EDGE('',*,*,#117,.T.);
#171=ORIENTED_EDGE('',*,*,#120,.F.);
#172=ORIENTED_EDGE('',*,*,#123,.F.);
#173=ORIENTED_EDGE('',*,*,#133,.F.);
#174=ORIENTED_EDGE('',*,*,#134,.T.);
#175=ORIENTED_EDGE('',*,*,#133,.T.);
#176=ORIENTED_EDGE('',*,*,#122,.F.);
#177=ORIENTED_EDGE('',*,*,#128,.F.);
#178=ORIENTED_EDGE('',*,*,#134,.F.);
#179=ORIENTED_EDGE('',*,*,#127,.F.);
#180=ORIENTED_EDGE('',*,*,#130,.F.);
#181=ORIENTED_EDGE('',*,*,#132,.F.);
#182=ORIENTED_EDGE('',*,*,#126,.F.);
#183=CYLINDRICAL_SURFACE('',#218,3.75);
#184=CYLINDRICAL_SURFACE('',#225,3.75);
#185=ADVANCED_FACE('',(#27),#183,.F.);
#186=ADVANCED_FACE('',(#28),#19,.T.);
#187=ADVANCED_FACE('',(#29,#15),#20,.T.);
#188=ADVANCED_FACE('',(#30,#16),#21,.T.);
#189=ADVANCED_FACE('',(#31),#184,.F.);
#190=ADVANCED_FACE('',(#32),#22,.T.);
#191=ADVANCED_FACE('',(#33,#17),#23,.T.);
#192=ADVANCED_FACE('',(#34),#24,.T.);
#193=ADVANCED_FACE('',(#35),#25,.T.);
#194=ADVANCED_FACE('',(#36,#18),#26,.F.);
#195=CLOSED_SHELL('',(#185,#186,#187,#188,#189,#190,#191,#192,#193,#194));
#196=DERIVED_UNIT_ELEMENT(#199,1.);
#197=DERIVED_UNIT_ELEMENT(#338,-3.);
#198=DIMENSIONAL_EXPONENTS(0.,1.,0.,0.,0.,0.,0.);
#199=(
CONVERSION_BASED_UNIT('gram',#201)
MASS_UNIT()
NAMED_UNIT(#198)
);
#200=(
MASS_UNIT()
NAMED_UNIT(*)
SI_UNIT(.KILO.,.GRAM.)
);
#201=MASS_MEASURE_WITH_UNIT(MASS_MEASURE(0.001),#200);
#202=DERIVED_UNIT((#196,#197));
#203=MEASURE_REPRESENTATION_ITEM('density measure',
POSITIVE_RATIO_MEASURE(1.),#202);
#204=PROPERTY_DEFINITION_REPRESENTATION(#209,#206);
#205=PROPERTY_DEFINITION_REPRESENTATION(#210,#207);
#206=REPRESENTATION('material name',(#208),#335);
#207=REPRESENTATION('density',(#203),#335);
#208=DESCRIPTIVE_REPRESENTATION_ITEM('Generic','Generic');
#209=PROPERTY_DEFINITION('material property','material name',#345);
#210=PROPERTY_DEFINITION('material property','density of part',#345);
#211=DATE_TIME_ROLE('creation_date');
#212=APPLIED_DATE_AND_TIME_ASSIGNMENT(#213,#211,(#345));
#213=DATE_AND_TIME(#214,#215);
#214=CALENDAR_DATE(2026,21,8);
#215=LOCAL_TIME(0,0,0.,#216);
#216=COORDINATED_UNIVERSAL_TIME_OFFSET(0,0,.BEHIND.);
#217=AXIS2_PLACEMENT_3D('',#282,#232,#233);
#218=AXIS2_PLACEMENT_3D('',#283,#234,#235);
#219=AXIS2_PLACEMENT_3D('',#285,#236,#237);
#220=AXIS2_PLACEMENT_3D('',#288,#239,#240);
#221=AXIS2_PLACEMENT_3D('',#289,#241,#242);
#222=AXIS2_PLACEMENT_3D('',#298,#247,#248);
#223=AXIS2_PLACEMENT_3D('',#304,#252,#253);
#224=AXIS2_PLACEMENT_3D('',#311,#257,#258);
#225=AXIS2_PLACEMENT_3D('',#312,#259,#260);
#226=AXIS2_PLACEMENT_3D('',#315,#262,#263);
#227=AXIS2_PLACEMENT_3D('',#316,#264,#265);
#228=AXIS2_PLACEMENT_3D('',#322,#269,#270);
#229=AXIS2_PLACEMENT_3D('',#326,#273,#274);
#230=AXIS2_PLACEMENT_3D('',#330,#277,#278);
#231=AXIS2_PLACEMENT_3D('',#332,#280,#281);
#232=DIRECTION('axis',(0.,0.,1.));
#233=DIRECTION('refdir',(1.,0.,0.));
#234=DIRECTION('center_axis',(0.,-1.,0.));
#235=DIRECTION('ref_axis',(1.,0.,0.));
#236=DIRECTION('center_axis',(0.,-1.,0.));
#237=DIRECTION('ref_axis',(1.,0.,0.));
#238=DIRECTION('',(0.,-1.,0.));
#239=DIRECTION('center_axis',(0.,1.,0.));
#240=DIRECTION('ref_axis',(1.,0.,0.));
#241=DIRECTION('center_axis',(0.,0.,1.));
#242=DIRECTION('ref_axis',(-1.,0.,0.));
#243=DIRECTION('',(1.,0.,0.));
#244=DIRECTION('',(0.,-1.,0.));
#245=DIRECTION('',(-1.,0.,0.));
#246=DIRECTION('',(0.,-1.,0.));
#247=DIRECTION('center_axis',(0.,-1.,0.));
#248=DIRECTION('ref_axis',(0.,0.,-1.));
#249=DIRECTION('',(0.,0.,-1.));
#250=DIRECTION('',(-1.,0.,0.));
#251=DIRECTION('',(0.,0.,1.));
#252=DIRECTION('center_axis',(0.,0.,1.));
#253=DIRECTION('ref_axis',(1.,0.,0.));
#254=DIRECTION('',(0.,-1.,0.));
#255=DIRECTION('',(1.,0.,0.));
#256=DIRECTION('',(0.,1.,0.));
#257=DIRECTION('center_axis',(0.,0.,-1.));
#258=DIRECTION('ref_axis',(-1.,0.,0.));
#259=DIRECTION('center_axis',(0.,0.,1.));
#260=DIRECTION('ref_axis',(-1.,0.,0.));
#261=DIRECTION('',(0.,0.,-1.));
#262=DIRECTION('center_axis',(0.,0.,-1.));
#263=DIRECTION('ref_axis',(-1.,0.,0.));
#264=DIRECTION('center_axis',(-1.,0.,0.));
#265=DIRECTION('ref_axis',(0.,-1.,0.));
#266=DIRECTION('',(0.,-1.,0.));
#267=DIRECTION('',(0.,0.,1.));
#268=DIRECTION('',(0.,0.,1.));
#269=DIRECTION('center_axis',(0.,1.,0.));
#270=DIRECTION('ref_axis',(-1.,0.,0.));
#271=DIRECTION('',(-1.,0.,0.));
#272=DIRECTION('',(0.,0.,1.));
#273=DIRECTION('center_axis',(1.,0.,0.));
#274=DIRECTION('ref_axis',(0.,1.,0.));
#275=DIRECTION('',(0.,1.,0.));
#276=DIRECTION('',(0.,0.,1.));
#277=DIRECTION('center_axis',(0.,-1.,0.));
#278=DIRECTION('ref_axis',(1.,0.,0.));
#279=DIRECTION('',(1.,0.,0.));
#280=DIRECTION('center_axis',(0.,0.,1.));
#281=DIRECTION('ref_axis',(1.,0.,0.));
#282=CARTESIAN_POINT('',(0.,0.,0.));
#283=CARTESIAN_POINT('Origin',(0.,7.5,7.5));
#284=CARTESIAN_POINT('',(-3.75,7.5,7.5));
#285=CARTESIAN_POINT('Origin',(0.,7.5,7.5));
#286=CARTESIAN_POINT('',(-3.75,5.5,7.5));
#287=CARTESIAN_POINT('',(-3.75,7.5,7.5));
#288=CARTESIAN_POINT('Origin',(0.,5.5,7.5));
#289=CARTESIAN_POINT('Origin',(7.5,7.5,15.));
#290=CARTESIAN_POINT('',(-7.5,7.5,15.));
#291=CARTESIAN_POINT('',(7.5,7.5,15.));
#292=CARTESIAN_POINT('',(-7.5,7.5,15.));
#293=CARTESIAN_POINT('',(-7.5,5.5,15.));
#294=CARTESIAN_POINT('',(-7.5,7.5,15.));
#295=CARTESIAN_POINT('',(7.5,5.5,15.));
#296=CARTESIAN_POINT('',(-7.5,5.5,15.));
#297=CARTESIAN_POINT('',(7.5,7.5,15.));
#298=CARTESIAN_POINT('Origin',(0.,5.5,8.5));
#299=CARTESIAN_POINT('',(-7.5,5.5,2.));
#300=CARTESIAN_POINT('',(-7.5,5.5,2.));
#301=CARTESIAN_POINT('',(7.5,5.5,2.));
#302=CARTESIAN_POINT('',(0.,5.5,2.));
#303=CARTESIAN_POINT('',(7.5,5.5,15.));
#304=CARTESIAN_POINT('Origin',(0.,0.,2.));
#305=CARTESIAN_POINT('',(-7.5,-7.5,2.));
#306=CARTESIAN_POINT('',(-7.5,7.5,2.));
#307=CARTESIAN_POINT('',(7.5,-7.5,2.));
#308=CARTESIAN_POINT('',(-7.5,-7.5,2.));
#309=CARTESIAN_POINT('',(7.5,-7.5,2.));
#310=CARTESIAN_POINT('',(3.75,0.,2.));
#311=CARTESIAN_POINT('Origin',(0.,0.,2.));
#312=CARTESIAN_POINT('Origin',(0.,0.,0.));
#313=CARTESIAN_POINT('',(3.75,4.59242549680257E-16,0.));
#314=CARTESIAN_POINT('',(3.75,4.59242549680257E-16,0.));
#315=CARTESIAN_POINT('Origin',(0.,0.,0.));
#316=CARTESIAN_POINT('Origin',(-7.5,7.5,0.));
#317=CARTESIAN_POINT('',(-7.5,7.5,0.));
#318=CARTESIAN_POINT('',(-7.5,-7.5,0.));
#319=CARTESIAN_POINT('',(-7.5,7.5,0.));
#320=CARTESIAN_POINT('',(-7.5,-7.5,0.));
#321=CARTESIAN_POINT('',(-7.5,7.5,0.));
#322=CARTESIAN_POINT('Origin',(7.5,7.5,0.));
#323=CARTESIAN_POINT('',(7.5,7.5,0.));
#324=CARTESIAN_POINT('',(7.5,7.5,0.));
#325=CARTESIAN_POINT('',(7.5,7.5,0.));
#326=CARTESIAN_POINT('Origin',(7.5,-7.5,0.));
#327=CARTESIAN_POINT('',(7.5,-7.5,0.));
#328=CARTESIAN_POINT('',(7.5,-7.5,0.));
#329=CARTESIAN_POINT('',(7.5,-7.5,0.));
#330=CARTESIAN_POINT('Origin',(-7.5,-7.5,0.));
#331=CARTESIAN_POINT('',(-7.5,-7.5,0.));
#332=CARTESIAN_POINT('Origin',(0.,0.,0.));
#333=UNCERTAINTY_MEASURE_WITH_UNIT(LENGTH_MEASURE(0.01),#337,
'DISTANCE_ACCURACY_VALUE',
'Maximum model space distance between geometric entities at asserted c
onnectivities');
#334=UNCERTAINTY_MEASURE_WITH_UNIT(LENGTH_MEASURE(0.01),#337,
'DISTANCE_ACCURACY_VALUE',
'Maximum model space distance between geometric entities at asserted c
onnectivities');
#335=(
GEOMETRIC_REPRESENTATION_CONTEXT(3)
GLOBAL_UNCERTAINTY_ASSIGNED_CONTEXT((#333))
GLOBAL_UNIT_ASSIGNED_CONTEXT((#337,#339,#340))
REPRESENTATION_CONTEXT('','3D')
);
#336=(
GEOMETRIC_REPRESENTATION_CONTEXT(3)
GLOBAL_UNCERTAINTY_ASSIGNED_CONTEXT((#334))
GLOBAL_UNIT_ASSIGNED_CONTEXT((#337,#339,#340))
REPRESENTATION_CONTEXT('','3D')
);
#337=(
LENGTH_UNIT()
NAMED_UNIT(*)
SI_UNIT(.MILLI.,.METRE.)
);
#338=(
LENGTH_UNIT()
NAMED_UNIT(*)
SI_UNIT(.CENTI.,.METRE.)
);
#339=(
NAMED_UNIT(*)
PLANE_ANGLE_UNIT()
SI_UNIT($,.RADIAN.)
);
#340=(
NAMED_UNIT(*)
SI_UNIT($,.STERADIAN.)
SOLID_ANGLE_UNIT()
);
#341=SHAPE_DEFINITION_REPRESENTATION(#342,#343);
#342=PRODUCT_DEFINITION_SHAPE('',$,#345);
#343=SHAPE_REPRESENTATION('',(#217),#335);
#344=PRODUCT_DEFINITION_CONTEXT('part definition',#349,'design');
#345=PRODUCT_DEFINITION('Part1','Part1',#346,#344);
#346=PRODUCT_DEFINITION_FORMATION('',$,#351);
#347=PRODUCT_RELATED_PRODUCT_CATEGORY('Part1','Part1',(#351));
#348=APPLICATION_PROTOCOL_DEFINITION('international standard',
'automotive_design',2009,#349);
#349=APPLICATION_CONTEXT(
'Core Data for Automotive Mechanical Design Process');
#350=PRODUCT_CONTEXT('part definition',#349,'mechanical');
#351=PRODUCT('Part1','Part1',$,(#350));
#352=PRESENTATION_STYLE_ASSIGNMENT((#353));
#353=SURFACE_STYLE_USAGE(.BOTH.,#356);
#354=SURFACE_STYLE_RENDERING_WITH_PROPERTIES($,#360,(#355));
#355=SURFACE_STYLE_TRANSPARENT(0.);
#356=SURFACE_SIDE_STYLE('',(#357,#354));
#357=SURFACE_STYLE_FILL_AREA(#358);
#358=FILL_AREA_STYLE('',(#359));
#359=FILL_AREA_STYLE_COLOUR('',#360);
#360=COLOUR_RGB('',0.749019607843137,0.749019607843137,0.749019607843137);
ENDSEC;
END-ISO-10303-21;
